<svg xmlns="http://www.w3.org/2000/svg" viewBox="0 0 64 80" fill="none" role="img" aria-label="Hearth logo (dark background variant)">
  <title>Hearth</title>
  <!-- Arch silhouette — lighter for dark backgrounds -->
  <path d="M6 78L6 38C6 8 58 8 58 38L58 78Z" fill="#C2410C"/>
  <!-- Flame — outer -->
  <path d="M32 70C22 62 16 50 21 38C24 30 29 23 32 15C35 23 40 30 43 38C48 50 42 62 32 70Z" fill="#F97316"/>
  <!-- Flame — mid -->
  <path d="M32 60C25 54 21 44 25 36C27 29 30 24 32 19C34 24 37 29 39 36C43 44 39 54 32 60Z" fill="#FBBF24"/>
  <!-- Flame — inner core -->
  <path d="M32 50C27 46 25 39 27 34C29 29 31 25 32 21C33 25 35 29 37 34C39 39 37 46 32 50Z" fill="#FEF08A"/>
</svg>
